# xmcd CD database file
#
# Track frame offsets:
#	150
#	13428
#	25739
#	39301
#	51052
#	65222
#	78708
#	92109
#	103770
#	114745
#	129221
#	139908
#	152473
#	165545
#	178630
#	195172
#	205101
#	218921
#	231268
#	243065
#	253105
#	266286
#	278352
#	290802
#	301216
#	312539
#
# Disc length: 4314 seconds
#
# Revision: 0
# Processed by: cddbd v1.5.2PL0 Copyright (c) Steve Scherf et al.
# Submitted via: Feurio! 1.68 - http://www.feurio.com
#
DISCID=6e10d81a
DTITLE=Various Artist - Blue Light (Basement Party) Vol 7
DYEAR=1900
DGENRE=R&B
TTITLE0=Brenda Holloway - Just Look What You've Done
TTITLE1=Five Stairsteps - Baby You Make Me Feel So Good
TTITLE2=Temptations - You're My Everything
TTITLE3=Gene Chandler - Here Comes The Tears
TTITLE4=Jo Ann Garrett - One Woman
TTITLE5=Jackson 5 - I Found That Girl
TTITLE6=Delacardos - Got No One
TTITLE7=Radiants - Voice Your Choice
TTITLE8=Patti Drew - He's The One
TTITLE9=Barbara Mason - Sad Sad Girl
TTITLE10=Delfonics - He Don't Really Love You
TTITLE11=Seqins - Hey Romeo
TTITLE12=Miracles - Oh Be My Love
TTITLE13=Bobby Hutton - More Today Than Yesterday
TTITLE14=Brotherx Of Soul - Try It Baby
TTITLE15=Mary Wells - Dear Lover
TTITLE16=Impressions - This Must End
TTITLE17=Fantastic Four - As Long As I Live (I Live For You)
TTITLE18=Toys - A Lover's Concerto
TTITLE19=Aretha Franklin - Cry Like A Baby
TTITLE20=Gladys Knight - My Bed Of Thorns
TTITLE21=Jackie Wilson - Those Heartaches
TTITLE22=Bobby Taylor and Vancouvers - Malinda
TTITLE23=Infinity - Get On The Case
TTITLE24=Apollo's - All Sold Out
TTITLE25=The Four Tops - Love Is The Answer
EXTD=
EXTT0=
EXTT1=
EXTT2=
EXTT3=
EXTT4=
EXTT5=
EXTT6=
EXTT7=
EXTT8=
EXTT9=
EXTT10=
EXTT11=
EXTT12=
EXTT13=
EXTT14=
EXTT15=
EXTT16=
EXTT17=
EXTT18=
EXTT19=
EXTT20=
EXTT21=
EXTT22=
EXTT23=
EXTT24=
EXTT25=
PLAYORDER=
